<?xml version="1.0" standalone="no"?>
<!DOCTYPE svg PUBLIC "-//W3C//DTD SVG 20010904//EN"
 "http://www.w3.org/TR/2001/REC-SVG-20010904/DTD/svg10.dtd">
<svg version="1.0" xmlns="http://www.w3.org/2000/svg"
 width="878.000000pt" height="878.000000pt" viewBox="0 0 878.000000 878.000000"
 preserveAspectRatio="xMidYMid meet">
<metadata>
Created by potrace 1.16, written by Peter Selinger 2001-2019
</metadata>
<g transform="translate(0.000000,878.000000) scale(0.100000,-0.100000)"
fill="#000000" stroke="none">
<line x1="5" y1="5" x2="10" y2="5" style="stroke:rgb(0,0,0);stroke-width:2" />
<path d="M0 4390 l0 -4390 4390 0 4390 0 0 4390 0 4390 -4390 0 -4390 0 0
-4390z m3336 3013 c16 1 32 6 35 11 4 5 10 -1 14 -13 7 -23 21 -28 27 -9 6 17
54 -15 63 -41 3 -11 14 -20 23 -20 43 -2 58 -5 64 -15 5 -8 11 -7 20 2 18 18
31 15 74 -21 38 -33 103 -60 89 -37 -3 5 -12 10 -19 10 -8 0 -19 7 -26 15 -10
12 -10 15 3 15 44 0 80 -48 57 -75 -23 -28 10 -26 37 2 25 26 25 24 7 -22 -4
-11 -2 -13 9 -10 8 4 17 -1 20 -9 4 -9 13 -13 22 -10 14 6 13 9 -5 21 -11 8
-20 18 -20 24 0 21 18 7 44 -36 25 -38 31 -43 44 -33 13 10 14 10 8 1 -4 -7
-3 -20 2 -29 6 -11 11 -13 16 -5 4 6 12 11 18 11 6 0 3 -9 -7 -20 -16 -18 -16
-20 -2 -20 10 0 17 -4 17 -10 0 -5 4 -10 10 -10 19 0 60 -44 61 -64 1 -17 2
-18 6 -4 4 14 8 16 24 8 10 -6 19 -18 19 -28 1 -15 2 -15 11 2 11 17 12 17 28
-8 10 -14 20 -23 24 -20 9 9 76 -65 92 -101 17 -39 44 -74 45 -57 0 7 -5 22
-11 34 -12 23 -2 40 11 18 19 -31 20 0 1 34 -12 20 -17 36 -13 36 13 0 28 -15
35 -32 10 -27 30 -22 21 5 -3 12 -11 24 -16 25 -13 5 -39 73 -32 84 10 16 41
-25 36 -47 -3 -11 -1 -17 3 -13 11 11 34 -23 35 -50 0 -26 21 -52 42 -52 8 0
7 4 -4 11 -13 7 -18 22 -17 52 1 36 2 38 9 17 4 -14 8 -21 9 -16 1 5 8 3 16
-4 9 -8 15 -8 15 -2 0 6 -6 12 -12 15 -7 2 -10 8 -6 12 10 11 38 -14 32 -29
-5 -12 36 -47 69 -59 10 -4 15 -11 12 -17 -3 -6 1 -13 9 -16 8 -3 18 -15 22
-26 3 -11 8 -17 11 -15 2 3 -2 18 -11 35 -18 34 -9 51 11 22 14 -20 40 -29 28
-10 -14 22 7 8 52 -36 27 -26 73 -65 103 -87 30 -22 76 -59 103 -80 54 -46 73
-43 33 3 -14 18 -24 36 -20 41 3 5 -4 9 -15 9 -12 0 -39 19 -61 41 -40 42 -57
77 -21 45 11 -10 25 -15 30 -11 6 3 21 -1 33 -9 12 -9 18 -16 13 -16 -5 0 1
-9 14 -21 25 -23 41 -19 21 6 -10 12 -9 15 6 16 17 1 17 2 2 6 -10 2 -18 9
-18 15 0 6 10 8 24 4 15 -4 26 -1 30 7 3 6 3 0 -1 -16 -3 -15 0 -33 6 -41 6
-7 9 -21 5 -30 -4 -9 -1 -16 6 -16 9 0 10 11 5 37 -6 33 -5 35 9 24 9 -8 16
-27 16 -44 0 -17 3 -27 6 -24 4 3 14 2 23 -2 14 -8 16 1 16 85 0 52 4 95 10
97 5 2 -1 26 -13 55 -27 63 -29 93 -2 35 11 -23 25 -45 30 -48 14 -9 12 5 -5
35 -8 14 -14 32 -14 40 0 8 5 3 10 -12 6 -15 16 -25 23 -22 7 3 18 -7 24 -21
7 -15 8 -24 2 -20 -6 3 -7 -1 -4 -10 4 -9 12 -14 19 -11 7 2 15 -5 18 -16 5
-17 8 -18 20 -7 11 10 12 18 5 27 -15 17 0 15 18 -3 9 -8 11 -15 5 -15 -6 0
-11 -5 -11 -12 0 -6 3 -9 6 -5 3 3 17 2 30 -3 34 -13 38 3 6 27 -44 33 -114
142 -108 168 4 14 0 28 -9 35 -8 7 -14 18 -13 24 2 6 -8 26 -20 44 -27 36 -20
44 9 10 14 -17 17 -18 13 -5 -3 9 -1 17 5 17 6 0 11 -6 11 -14 0 -17 49 -70
57 -62 3 3 -2 15 -12 26 -10 11 -15 23 -12 26 4 4 9 -1 13 -10 10 -27 27 -18
20 11 -5 17 -3 29 6 34 9 6 6 9 -11 9 -16 0 -21 4 -18 14 3 8 -3 23 -14 34
-10 12 -19 24 -19 27 0 3 -10 19 -22 35 -12 16 -18 33 -13 37 4 5 10 2 12 -5
3 -8 20 -29 39 -47 19 -19 34 -39 34 -45 0 -5 4 -10 9 -10 18 0 -3 51 -35 86
-19 19 -34 37 -34 40 0 12 21 1 41 -22 13 -14 34 -36 47 -49 12 -13 22 -29 22
-35 0 -5 7 -10 15 -10 9 0 15 9 15 21 0 20 2 20 38 -7 20 -16 51 -42 68 -59
17 -17 45 -37 62 -44 18 -8 32 -17 32 -22 0 -5 6 -9 13 -9 8 0 22 -9 32 -20
10 -11 25 -20 33 -20 9 0 12 -3 9 -7 -4 -4 7 -13 24 -20 41 -17 54 -17 39 2
-7 8 -18 15 -25 15 -7 0 -15 7 -18 14 -4 10 -1 13 9 9 14 -5 14 -3 2 16 -14
23 -50 37 -66 27 -16 -10 -116 48 -167 98 -27 25 -52 46 -57 46 -5 0 -8 6 -7
13 3 25 -2 36 -27 67 -22 25 -24 34 -14 43 9 8 11 8 7 1 -4 -7 0 -15 8 -18 9
-3 20 -17 25 -30 5 -15 20 -28 37 -32 26 -7 92 -69 93 -86 0 -5 6 -8 13 -8 6
0 29 -18 51 -40 35 -36 56 -49 56 -34 0 13 -47 73 -53 68 -4 -4 -11 5 -16 18
-5 14 -22 35 -37 47 -15 12 -24 24 -21 27 3 3 15 -4 26 -15 12 -12 24 -21 27
-21 4 0 13 -8 20 -17 7 -10 14 -13 14 -7 0 5 -9 20 -20 32 -24 26 -28 51 -5
32 9 -7 30 -31 47 -53 31 -39 31 -39 7 -32 -22 6 -22 6 -7 -6 10 -8 28 -29 41
-46 13 -18 40 -46 60 -62 20 -15 33 -32 29 -35 -4 -4 -2 -6 4 -4 5 2 37 -14
69 -35 32 -21 68 -39 79 -41 12 -2 19 -7 18 -11 -5 -11 19 -25 46 -25 15 0 22
-6 22 -20 0 -11 5 -20 11 -20 6 0 9 -7 5 -15 -3 -8 1 -21 9 -29 19 -19 19 -56
1 -56 -8 0 -17 6 -19 13 -3 7 -6 5 -6 -5 -1 -14 7 -17 38 -15 29 1 37 6 34 17
-4 12 -2 12 6 -1 7 -11 7 -27 -1 -52 -10 -33 -9 -39 7 -51 18 -13 18 -14 -4
-21 -13 -4 -28 -2 -36 5 -10 8 -15 9 -15 2 0 -6 4 -13 10 -17 5 -3 7 -12 3
-20 -6 -17 8 -20 23 -5 6 6 15 6 24 0 8 -6 10 -10 3 -10 -6 0 -9 -9 -6 -21 4
-15 0 -22 -16 -26 -11 -3 -21 -10 -21 -15 0 -6 7 -7 15 -4 13 5 15 -1 10 -32
-5 -33 -4 -34 6 -12 l10 25 14 -25 c9 -18 10 -29 3 -37 -6 -7 -6 -13 -1 -13 5
0 9 -8 10 -17 1 -10 5 -31 9 -47 5 -21 4 -27 -5 -22 -6 4 -11 16 -11 27 0 10
-4 19 -10 19 -5 0 -10 -8 -10 -17 0 -15 -2 -16 -10 -3 -14 22 -13 53 3 44 9
-5 9 -4 0 6 -6 7 -16 9 -22 6 -15 -10 -14 -43 2 -49 8 -3 5 -12 -11 -27 -18
-17 -22 -28 -17 -51 5 -22 3 -29 -9 -29 -9 0 -16 8 -16 18 0 11 -3 13 -8 5 -4
-6 -21 -14 -37 -18 -26 -5 -28 -5 -14 7 15 12 15 16 -5 43 -25 35 -51 45 -41
16 3 -11 1 -22 -5 -26 -6 -4 -10 -19 -8 -33 2 -18 -2 -26 -10 -24 -7 1 -12 -5
-10 -15 2 -10 -5 -19 -19 -22 -16 -4 -20 -10 -14 -20 5 -7 14 -10 20 -7 6 4
11 0 11 -8 0 -9 -7 -16 -15 -16 -12 0 -15 -11 -13 -49 2 -37 -3 -55 -16 -70
-16 -18 -17 -21 -3 -21 8 0 18 6 20 13 4 9 6 9 6 0 1 -7 -7 -17 -17 -22 -14
-7 -21 -5 -30 10 -7 11 -17 17 -23 13 -7 -4 -4 -12 6 -24 11 -12 14 -26 9 -44
-4 -16 -1 -32 6 -41 9 -10 9 -15 1 -15 -6 0 -11 -11 -11 -25 0 -14 -4 -25 -10
-25 -5 0 -10 -7 -10 -16 0 -9 -5 -12 -12 -8 -8 5 -9 2 -5 -10 4 -10 4 -23 0
-29 -4 -6 -7 -24 -7 -39 -1 -38 -19 -40 -27 -3 -4 17 -8 23 -9 15 -8 -52 27
-150 54 -150 7 0 19 -7 26 -15 8 -9 9 -15 2 -15 -6 0 -14 5 -17 10 -4 6 -14 9
-23 8 -9 -2 -16 2 -15 9 2 7 -6 17 -16 23 -16 8 -18 7 -14 -10 3 -11 0 -20 -6
-20 -6 0 -11 7 -11 15 0 8 -4 15 -10 15 -5 0 -10 7 -10 15 0 8 -7 15 -15 15
-8 0 -15 -6 -15 -14 0 -11 -8 -12 -35 -6 -22 5 -35 4 -35 -2 0 -6 -7 -8 -15
-4 -8 3 -15 1 -15 -4 0 -6 9 -10 21 -10 11 0 18 -4 15 -9 -6 -9 -42 -4 -61 9
-17 11 -75 11 -75 0 0 -6 12 -15 28 -21 15 -6 21 -13 15 -16 -7 -3 -32 9 -56
25 -43 29 -104 48 -141 43 -14 -2 -17 2 -13 13 6 14 3 15 -13 6 -20 -10 -19
-11 6 -33 25 -21 25 -23 5 -23 -12 0 -21 4 -21 9 0 5 -6 7 -14 4 -8 -3 -20 1
-26 9 -7 8 -9 14 -4 15 12 1 -28 17 -44 18 -7 1 -10 -4 -6 -10 5 -9 -1 -10
-20 -5 -15 4 -26 2 -26 -4 0 -5 7 -10 15 -10 8 0 15 -5 15 -11 0 -6 -9 -8 -22
-3 -26 8 -136 6 -151 -3 -5 -3 -4 -9 3 -13 7 -4 -14 -8 -46 -9 -96 -1 -119 -5
-116 -18 1 -9 -12 -13 -43 -13 -25 0 -45 -4 -45 -10 0 -5 -11 -10 -24 -10 -32
0 -57 -10 -51 -20 3 -5 -1 -14 -8 -22 -7 -7 -16 -22 -20 -33 -7 -19 -6 -19 10
1 10 12 25 31 33 43 8 11 20 21 28 21 7 0 2 -10 -12 -23 -14 -13 -37 -43 -50
-68 l-26 -44 0 46 c0 38 -4 48 -20 52 -11 3 -17 1 -14 -4 3 -5 2 -18 -1 -30
-5 -16 -10 -18 -21 -8 -14 12 -18 7 -15 -23 1 -10 -3 -18 -8 -18 -6 0 -11 7
-11 15 0 13 -2 13 -14 3 -7 -7 -11 -19 -9 -26 3 -7 -2 -21 -12 -32 -22 -24
-37 -90 -21 -90 6 -1 5 -6 -4 -13 -27 -22 -48 -73 -42 -102 3 -16 1 -26 -5
-22 -5 3 -10 -23 -10 -64 -1 -38 1 -69 5 -69 13 0 31 -59 25 -80 -4 -16 -2
-19 11 -14 9 3 16 1 16 -5 0 -6 9 -11 19 -11 11 0 23 -5 27 -11 3 -6 17 -8 30
-5 15 4 24 2 24 -5 0 -6 9 -9 20 -6 11 3 22 2 25 -3 3 -4 -4 -10 -15 -13 -12
-3 -20 -13 -19 -24 1 -15 2 -16 6 -1 3 13 12 15 41 11 20 -4 42 -12 47 -19 6
-6 21 -15 35 -19 25 -7 25 -7 -5 26 -16 19 -33 35 -36 37 -4 2 -5 11 -2 21 3
13 -2 20 -21 25 -29 7 -35 26 -9 26 13 0 14 3 5 12 -7 7 -12 17 -12 23 0 16
117 8 143 -10 12 -8 16 -15 9 -15 -6 0 -12 -5 -12 -11 0 -6 8 -9 18 -7 9 2 16
10 14 16 -2 14 44 16 52 3 8 -12 -4 -41 -16 -41 -6 0 -8 7 -5 15 4 8 2 17 -3
20 -6 4 -10 -3 -10 -13 0 -24 -34 -34 -66 -20 -24 11 -47 3 -28 -10 6 -4 16
-17 23 -29 6 -13 20 -23 30 -23 10 0 21 -9 24 -20 5 -19 31 -21 57 -5 12 8
140 -15 140 -25 0 -4 27 -8 60 -7 33 0 63 -2 66 -6 4 -3 14 -3 23 2 9 4 36 7
60 6 29 -2 57 4 80 16 20 10 52 20 71 20 19 1 49 5 65 9 l30 7 -29 12 c-16 6
-36 9 -44 6 -10 -3 -12 0 -8 10 4 12 -3 15 -34 15 -22 0 -40 -3 -40 -7 0 -13
-98 -15 -105 -2 -6 8 -10 8 -15 -1 -11 -17 -91 -20 -110 -4 -19 16 -51 21 -68
11 -8 -6 -12 -4 -10 5 2 7 -3 12 -9 10 -7 -1 -13 2 -13 8 0 10 21 14 48 11 6
-1 12 5 12 14 0 8 7 15 15 15 8 0 14 5 13 12 -2 6 6 13 17 15 11 1 14 0 8 -3
-18 -8 -16 -24 1 -24 16 0 42 23 48 41 3 8 13 6 32 -6 28 -19 29 -19 22 2 -6
18 -3 21 19 19 14 0 25 -4 25 -8 0 -15 69 -8 84 8 11 10 23 13 38 8 13 -4 29
-7 37 -5 7 1 10 -2 7 -7 -8 -14 24 -24 38 -13 6 5 29 6 52 2 23 -4 56 -6 73
-3 18 2 31 0 31 -6 0 -7 18 -9 50 -5 37 4 50 3 50 -7 0 -7 3 -10 6 -7 4 4 1
13 -6 22 -11 13 -7 15 34 15 48 0 59 11 29 29 -16 9 -15 10 7 11 18 0 21 3 12
9 -18 11 7 21 49 21 25 0 29 3 24 19 -4 14 1 20 25 24 18 4 30 13 30 22 0 8 5
15 11 15 7 0 10 -12 7 -29 -4 -25 0 -31 20 -36 16 -4 22 -11 18 -21 -3 -9 3
-19 18 -25 18 -9 23 -19 23 -52 0 -23 7 -56 16 -73 13 -26 14 -34 3 -43 -13
-11 -15 -38 -3 -58 4 -6 0 -18 -8 -26 -9 -10 -11 -17 -4 -19 16 -5 14 -79 -2
-89 -11 -7 -10 -9 4 -9 10 0 20 7 23 15 10 24 27 17 19 -7 -4 -13 -6 -33 -6
-46 1 -13 -3 -20 -9 -17 -6 4 -8 11 -5 16 4 5 4 9 1 9 -2 0 -11 3 -19 6 -13 5
-14 -1 -6 -33 5 -21 11 -54 13 -73 3 -19 7 -53 11 -76 6 -38 5 -41 -16 -40
-21 1 -23 -3 -20 -51 1 -33 -2 -53 -8 -53 -6 0 -11 7 -11 15 0 8 -4 15 -10 15
-5 0 -10 -5 -10 -11 0 -5 -4 -8 -9 -4 -6 3 -8 -12 -6 -36 l4 -41 -35 5 c-25 4
-34 2 -34 -8 0 -22 -22 -29 -35 -12 -15 21 -25 22 -25 2 0 -25 -30 -17 -31 8
l0 22 -9 -22 c-5 -12 -17 -26 -27 -32 -14 -8 -15 -10 -2 -11 8 0 20 5 27 12 9
9 12 8 12 -6 0 -10 -12 -21 -30 -27 -17 -6 -30 -15 -30 -20 0 -16 -29 -10 -39
9 -9 15 -10 15 -11 1 0 -20 24 -42 35 -31 5 4 5 1 1 -5 -4 -7 -14 -13 -22 -13
-8 0 -14 -7 -14 -16 0 -23 -53 -72 -81 -76 -13 -2 -25 -11 -27 -20 -2 -13 2
-15 20 -11 16 4 20 2 13 -5 -5 -6 -21 -11 -35 -12 -38 -3 -46 -1 -30 10 8 5
12 11 9 14 -3 3 -15 -3 -27 -14 -22 -21 -52 -17 -52 7 0 11 -7 13 -30 8 -21
-5 -32 -3 -36 8 -3 9 -14 12 -30 9 -19 -3 -30 2 -42 19 -9 13 -16 27 -14 32 1
4 -13 7 -32 7 -44 0 -66 9 -66 25 0 8 -8 11 -20 8 -19 -5 -50 16 -50 35 0 15
-43 33 -75 31 -16 -1 -42 3 -57 9 -20 8 -28 8 -28 1 0 -6 -7 -9 -15 -6 -8 4
-17 2 -20 -3 -4 -6 -1 -10 4 -10 13 0 15 -37 2 -44 -5 -3 -11 3 -14 14 -3 13
-14 20 -31 20 -27 0 -51 31 -42 55 7 20 -3 25 -31 14 -17 -6 -22 -6 -17 2 20
33 -60 124 -136 155 -28 11 -60 8 -60 -7 0 -5 -7 -9 -15 -9 -18 0 -20 20 -2
21 6 0 0 5 -15 11 -16 5 -28 16 -28 24 0 21 -17 17 -23 -6 -3 -11 -12 -20 -21
-20 -13 0 -13 -5 0 -51 9 -30 12 -54 7 -58 -5 -3 -15 -27 -23 -53 -10 -40 -17
-48 -35 -48 -13 0 -36 -13 -52 -30 -15 -16 -33 -30 -39 -30 -6 0 -21 -13 -34
-30 -12 -16 -27 -27 -31 -24 -5 3 -9 0 -9 -6 0 -6 -8 -10 -17 -8 -10 3 -35 -4
-56 -14 -29 -15 -42 -16 -58 -7 -12 6 -31 8 -44 5 -19 -5 -33 5 -74 51 -28 31
-51 60 -51 65 0 16 -26 8 -53 -17 -15 -14 -27 -32 -27 -40 0 -8 -4 -15 -10
-15 -5 0 -10 -7 -10 -15 0 -8 -7 -15 -16 -15 -8 0 -22 -7 -30 -15 -18 -17 -34
-20 -34 -5 0 6 -7 10 -16 10 -9 0 -27 11 -39 24 -16 18 -21 33 -18 64 3 43 -5
56 -31 46 -13 -5 -15 -16 -10 -58 5 -45 3 -54 -21 -78 -29 -31 -45 -36 -45
-13 0 8 -4 15 -10 15 -5 0 -10 -4 -10 -10 0 -5 -7 -7 -16 -3 -24 9 -92 -17
-97 -38 -3 -13 -14 -19 -32 -19 -17 0 -34 -9 -47 -25 -11 -14 -30 -25 -43 -25
-12 0 -25 -7 -29 -15 -3 -9 -15 -13 -33 -11 -15 2 -22 1 -15 -1 24 -9 11 -19
-38 -32 -27 -7 -50 -17 -50 -22 0 -5 5 -9 10 -9 6 0 10 -4 10 -8 0 -4 -26 -8
-57 -9 -41 -1 -52 1 -38 7 18 8 17 9 -7 9 -14 1 -28 -3 -30 -8 -1 -5 -21 -1
-42 10 -22 10 -45 19 -53 19 -7 0 -16 12 -19 26 -4 15 -10 21 -14 15 -4 -7
-21 3 -48 28 -22 21 -43 37 -45 35 -9 -9 -67 51 -68 71 0 19 -1 18 -9 -2 -12
-30 -18 -29 -32 5 -6 15 -12 29 -14 32 -1 3 -5 15 -9 27 -4 13 -11 21 -15 18
-10 -6 -22 39 -14 58 3 8 -2 21 -11 30 -8 9 -18 37 -21 64 -8 75 -26 167 -35
178 -4 6 -6 38 -3 72 4 51 2 63 -13 71 -13 8 -15 13 -5 24 9 11 8 19 -4 37
-11 15 -14 30 -8 49 8 28 7 215 -2 244 -3 9 0 19 6 23 5 3 10 35 10 71 0 38
-4 63 -9 59 -5 -3 -12 -1 -16 5 -3 5 3 10 14 10 24 0 26 17 6 44 -20 27 -19
36 5 36 11 0 20 -6 20 -14 0 -8 7 -16 15 -20 8 -3 15 -15 15 -26 0 -11 3 -20
8 -20 4 0 7 -19 7 -43 -1 -52 12 -84 28 -68 7 7 7 14 -1 23 -6 8 -7 19 -3 27
6 9 14 6 30 -15 11 -14 21 -32 21 -39 0 -7 7 -15 15 -19 8 -3 15 -12 15 -21 0
-9 12 -18 28 -21 15 -3 32 -15 37 -27 24 -53 165 -77 230 -40 18 10 120 19
150 13 6 -1 26 -4 45 -6 19 -2 59 -6 88 -10 34 -4 58 -2 65 5 8 8 6 11 -8 12
-33 2 24 17 68 18 28 1 37 -3 37 -15 0 -11 6 -15 20 -11 20 5 60 -33 60 -57 0
-6 -5 -3 -11 6 -8 14 -15 15 -36 7 -17 -6 -30 -6 -37 1 -9 7 -11 2 -8 -20 3
-23 0 -30 -12 -30 -8 0 -37 -7 -63 -16 -36 -12 -51 -14 -65 -5 -11 7 -18 7
-18 1 0 -5 5 -10 11 -10 5 0 8 -4 4 -10 -3 -5 -12 -7 -21 -3 -21 8 -132 -17
-145 -33 -6 -8 -18 -14 -25 -14 -8 0 -14 -4 -14 -10 0 -9 44 -15 80 -12 61 7
110 5 110 -3 0 -5 5 -2 11 8 5 9 19 17 31 17 11 0 42 8 69 17 l48 17 26 -28
c14 -16 29 -26 32 -22 3 3 -2 15 -12 26 -18 20 -18 21 1 35 10 8 31 17 47 20
15 4 27 11 27 16 0 5 8 9 18 10 11 0 12 2 4 6 -10 4 -10 8 -1 19 13 16 39 19
39 5 0 -5 7 -11 14 -14 10 -4 13 -1 9 9 -3 7 -9 14 -14 14 -5 0 -9 5 -9 10 0
6 7 10 15 10 8 0 15 -5 15 -11 0 -5 5 -7 12 -3 9 6 9 9 0 12 -38 12 9 55 73
66 38 6 41 5 54 -25 10 -24 11 -36 3 -49 -18 -29 22 -13 61 24 43 41 57 66 57
108 0 18 4 39 9 47 5 8 5 21 0 30 -14 26 -49 134 -49 153 0 10 -7 21 -15 24
-8 4 -15 12 -15 20 0 8 -4 14 -10 14 -5 0 -13 15 -18 33 -5 20 -15 32 -25 32
-9 0 -31 19 -48 43 -23 32 -34 40 -44 32 -9 -8 -14 -6 -19 5 -3 9 -11 13 -17
10 -6 -4 -26 7 -44 25 -18 17 -41 30 -51 29 -32 -5 -95 11 -123 32 -18 13 -45
19 -86 21 -33 1 -66 6 -74 12 -11 8 -13 8 -7 -1 4 -8 2 -13 -8 -13 -8 0 -17 4
-20 9 -7 11 -47 6 -74 -8 -18 -9 -19 -8 -14 11 3 13 1 19 -5 15 -5 -3 -34 -2
-64 2 -35 6 -58 5 -66 -1 -7 -6 -24 -8 -38 -6 -18 4 -29 -1 -40 -19 -9 -13
-14 -27 -12 -31 2 -4 -11 -20 -29 -35 -39 -33 -45 -23 -12 19 22 28 10 26 -25
-4 -16 -15 -17 -14 -11 4 4 10 14 28 23 38 14 17 12 17 -16 -2 -17 -12 -36
-22 -42 -22 -6 0 -20 -9 -32 -21 l-21 -21 7 22 c4 12 3 21 -1 18 -5 -2 -22
-10 -37 -18 -35 -17 -84 -3 -79 23 2 9 -2 17 -8 17 -5 0 -10 5 -10 10 0 6 10
8 24 4 20 -5 24 -1 34 35 5 23 6 41 1 41 -5 0 -9 15 -9 33 0 17 -7 41 -15 51
-8 11 -15 39 -15 63 0 24 -4 43 -10 43 -5 0 -10 -7 -10 -15 0 -8 -6 -15 -12
-16 -10 0 -10 -2 0 -6 18 -7 14 -27 -9 -41 -25 -16 -25 -17 -32 31 -5 31 -3
37 11 35 11 -2 17 4 18 20 2 29 -12 38 -19 12 -7 -29 -25 -25 -23 5 0 14 7 25
14 25 20 0 14 28 -9 40 -16 9 -18 14 -8 26 8 10 8 14 0 14 -6 0 -11 5 -11 12
0 9 3 9 12 0 7 -7 21 -12 32 -12 19 0 19 1 3 17 -10 10 -25 18 -34 18 -11 0
-20 13 -26 35 -8 33 -9 34 -23 15 -13 -17 -16 -18 -24 -5 -13 20 -12 34 2 48
9 9 8 12 -5 12 -11 0 -17 8 -17 25 0 14 -4 25 -10 25 -15 0 -12 27 5 44 17 17
20 30 5 21 -16 -10 -11 32 6 49 8 9 11 16 5 16 -16 0 -13 75 4 116 8 19 13 36
12 38 -1 1 3 10 10 18 7 8 14 31 17 50 6 48 118 274 159 322 10 11 51 66 91
121 40 55 84 109 97 121 13 11 38 36 54 55 37 42 133 122 160 134 25 11 31 12
51 14 8 0 13 5 9 10 -3 5 5 13 17 17 13 4 42 20 65 35 23 16 51 29 62 29 12 0
21 5 21 11 0 6 7 9 15 5 9 -3 15 0 15 10 0 11 4 12 19 5 10 -6 31 -9 47 -8z
m1351 -330 c10 -30 24 -42 39 -36 7 3 11 9 8 14 -3 5 0 9 7 9 6 0 9 -8 6 -20
-3 -11 -1 -20 4 -20 5 0 8 -3 8 -7 -3 -18 2 -33 10 -33 4 0 6 11 4 24 -3 13 0
27 6 30 6 4 11 2 11 -4 0 -6 5 -8 10 -5 13 8 13 -21 0 -45 -8 -14 -5 -19 12
-23 25 -7 38 1 21 11 -9 5 -10 17 -4 37 l8 30 17 -39 c12 -28 13 -42 5 -46 -7
-5 -5 -9 5 -13 19 -8 21 -34 4 -39 -9 -3 -8 -10 5 -22 12 -12 15 -25 11 -40
-4 -11 -3 -18 1 -14 4 4 10 24 12 45 2 20 6 39 8 41 6 7 28 -43 35 -80 8 -42
4 -47 -17 -20 -13 16 -14 15 -10 -5 5 -23 -7 -31 -18 -13 -3 6 -18 10 -33 10
-21 0 -33 9 -47 33 -11 17 -19 35 -17 39 1 4 -5 5 -13 2 -10 -4 -15 0 -15 14
0 10 -14 36 -30 57 -20 25 -28 45 -24 57 3 12 0 18 -9 18 -12 0 -20 12 -45 63
-2 4 1 7 7 7 7 0 14 -8 18 -17z m448 -1587 c32 -5 35 -4 15 4 -22 9 -21 9 10
5 36 -6 79 -35 50 -35 -7 0 -11 -3 -8 -6 4 -3 15 -1 25 4 12 7 27 6 48 -3 27
-12 27 -13 8 -14 -13 -1 -23 -5 -23 -11 0 -5 -13 -7 -31 -3 -29 6 -31 5 -20
-15 6 -12 17 -21 24 -19 6 1 13 -9 15 -23 3 -24 2 -25 -13 -5 -15 19 -17 19
-26 2 -6 -9 -14 -15 -19 -12 -5 3 -21 -1 -34 -10 -14 -9 -29 -14 -35 -11 -5 3
-11 0 -14 -8 -4 -10 -16 -12 -49 -6 -24 4 -77 8 -118 9 -41 1 -83 4 -92 7 -10
3 -18 1 -18 -5 0 -6 -4 -11 -9 -11 -15 0 -33 57 -26 81 10 29 44 58 70 59 19
0 59 20 42 20 -5 0 -6 3 -4 8 6 8 173 7 232 -2z m-2019 -98 c22 -10 28 -10 32
0 5 17 22 15 22 -3 0 -9 10 -20 23 -25 12 -5 18 -9 12 -9 -5 -1 1 -8 13 -17
12 -8 22 -22 22 -30 0 -8 5 -14 11 -14 5 0 8 -4 4 -10 -3 -5 -12 -7 -20 -3 -9
3 -26 -2 -40 -11 -13 -9 -47 -17 -75 -18 -29 -1 -54 -6 -56 -10 -3 -5 -10 -5
-16 -2 -6 4 -5 10 3 15 11 7 10 9 -3 9 -11 0 -15 5 -12 15 8 20 -10 19 -31 -1
-20 -21 -40 -13 -56 25 -8 17 -24 33 -38 36 l-25 6 25 13 c15 8 30 10 42 4 24
-12 42 -1 27 17 -9 11 -3 15 32 18 24 2 51 4 60 5 9 1 29 -4 44 -10z m3512
-252 c9 14 73 6 71 -10 -3 -27 3 -36 25 -36 24 0 43 -34 25 -46 -14 -8 -11
-24 5 -24 21 0 28 -28 9 -38 -9 -5 -13 -15 -9 -21 4 -6 12 -9 17 -6 5 4 9 -1
9 -9 0 -9 5 -16 10 -16 6 0 10 -7 10 -15 0 -8 -7 -15 -15 -15 -17 0 -20 -16
-5 -25 6 -3 10 -13 10 -22 0 -9 10 -27 23 -41 20 -21 22 -33 20 -110 -2 -88
-16 -166 -34 -188 -5 -7 -9 -16 -8 -20 2 -16 -13 -54 -22 -54 -5 0 -9 -5 -9
-11 0 -6 -11 -25 -25 -41 -14 -17 -32 -42 -40 -57 -12 -25 -12 -27 6 -27 25 0
101 80 130 135 26 51 51 56 42 9 -13 -73 -62 -208 -75 -208 -5 0 -8 -6 -8 -13
0 -7 -16 -31 -36 -53 -21 -22 -37 -50 -38 -65 -1 -31 -53 -109 -72 -109 -8 0
-14 -4 -14 -10 0 -5 -11 -10 -24 -10 -13 0 -26 -6 -29 -13 -4 -12 -92 -42
-111 -38 -4 1 -13 -3 -20 -8 -6 -5 -22 -9 -36 -10 -14 0 -40 -3 -58 -7 -23 -4
-46 -1 -72 11 -50 23 -63 49 -63 127 0 26 -4 45 -9 42 -4 -3 -8 2 -8 10 0 9 4
16 8 16 4 0 9 29 10 65 1 35 10 108 21 162 11 54 27 148 36 208 21 142 29 181
37 175 4 -3 13 3 21 13 12 18 14 18 50 1 34 -16 37 -20 31 -51 -3 -18 -3 -41
2 -50 5 -13 9 -4 14 32 4 28 3 52 -2 53 -13 6 -9 60 8 100 l17 37 10 -27 c6
-16 19 -30 29 -34 10 -3 17 -11 15 -17 -1 -7 10 -11 28 -11 79 4 123 3 163 -2
27 -4 42 -2 43 5 3 26 4 30 12 37 12 12 8 24 -8 24 -8 0 -15 9 -15 19 0 31
-18 34 -61 12 -45 -24 -60 -17 -73 32 -4 16 -18 39 -31 51 -31 29 -31 38 0 67
24 23 35 46 16 35 -10 -7 -18 37 -13 72 2 16 8 22 18 18 8 -3 14 0 14 7 0 8 4
7 10 -3 7 -11 12 -12 18 -4z m-4300 -572 c31 -31 42 -49 37 -63 -3 -11 1 -24
11 -31 29 -25 50 -84 53 -150 1 -36 7 -69 12 -74 12 -13 12 -53 -1 -77 -12
-21 -7 -29 49 -84 31 -30 33 -37 35 -101 1 -38 8 -79 14 -91 13 -24 16 -152 4
-168 -8 -12 -72 -14 -72 -2 0 4 -9 7 -20 7 -11 0 -20 4 -20 9 0 5 -12 14 -27
20 -58 21 -77 50 -92 132 -5 30 -19 81 -30 113 -21 59 -30 140 -18 153 4 3 7
-2 7 -13 0 -17 39 -64 54 -64 13 0 5 38 -11 53 -17 14 -31 40 -62 107 -28 61
-42 306 -20 353 15 34 43 25 97 -29z m2131 -160 c-11 -14 -10 -16 6 -13 23 4
85 -39 85 -58 0 -7 9 -13 19 -13 10 0 21 -7 24 -14 4 -11 1 -13 -10 -9 -12 5
-14 1 -8 -16 8 -26 -10 -52 -31 -44 -8 3 -26 -4 -38 -16 -15 -15 -26 -19 -31
-12 -3 6 -13 11 -21 11 -27 0 -45 27 -38 56 4 15 3 25 -2 21 -5 -3 -9 17 -9
45 0 51 19 78 53 78 12 0 12 -3 1 -16z m406 -324 c33 -10 53 -19 45 -20 -9 -1
-6 -5 7 -10 19 -8 22 -14 17 -40 -7 -34 8 -41 22 -10 8 19 10 19 32 5 12 -9
20 -20 17 -25 -3 -5 4 -14 15 -20 11 -6 20 -17 20 -25 0 -21 -16 -19 -24 2 -6
15 -8 15 -16 3 -20 -31 -12 -50 20 -50 22 0 30 5 30 17 0 14 3 14 13 5 6 -7
12 -18 12 -25 0 -7 10 -16 23 -22 25 -11 29 -30 7 -39 -8 -3 -15 -10 -15 -16
0 -13 37 -13 45 0 3 6 11 10 17 10 16 0 -10 -28 -33 -35 -26 -8 -79 32 -55 41
21 8 20 24 -1 39 -13 10 -19 10 -30 -1 -18 -17 -16 -27 3 -20 12 5 15 2 10
-10 -3 -8 -6 -20 -6 -25 0 -5 -9 -9 -20 -9 -11 0 -20 5 -20 12 0 6 -7 4 -18
-5 -10 -10 -26 -17 -34 -17 -9 0 -21 -7 -28 -15 -7 -9 -19 -14 -26 -11 -7 3
-16 1 -19 -4 -4 -6 -16 -10 -29 -10 -12 0 -27 -5 -34 -12 -7 -7 -12 -8 -12 -4
0 5 -6 3 -14 -3 -9 -8 -66 -13 -160 -14 -80 -1 -146 -4 -146 -7 0 -3 -11 -5
-25 -5 -14 0 -25 4 -25 8 0 11 -70 -3 -95 -19 -11 -7 -40 -17 -65 -24 -25 -6
-62 -18 -84 -26 -21 -8 -46 -12 -55 -10 -30 9 -116 19 -154 17 -25 -1 -39 3
-43 14 -4 10 -11 12 -22 6 -26 -13 -122 -21 -122 -11 0 14 -44 12 -58 -2 -16
-16 -98 -37 -147 -38 -22 0 -51 7 -63 16 -13 9 -30 13 -38 10 -8 -3 -17 1 -20
9 -3 8 -15 17 -26 21 -10 3 -35 20 -54 36 -27 24 -32 33 -22 40 10 7 10 10 -4
18 -13 8 -15 19 -11 48 3 20 12 41 20 45 16 10 17 37 1 37 -6 0 -2 10 10 23
12 13 22 32 22 43 0 16 2 17 10 4 9 -13 10 -13 10 0 0 8 21 29 48 47 39 26 50
29 62 19 16 -13 38 -23 55 -24 14 -1 24 -35 13 -49 -11 -14 7 -27 27 -19 8 3
29 -8 47 -24 18 -17 35 -30 39 -30 4 0 12 -13 19 -30 7 -16 18 -30 24 -30 6 0
5 -4 -3 -9 -11 -7 -11 -10 0 -17 7 -4 14 -3 17 4 6 20 22 13 22 -10 1 -21 2
-22 14 -5 14 19 36 23 36 7 0 -5 -4 -10 -10 -10 -5 0 -10 -7 -10 -15 0 -20 17
-19 28 2 14 23 44 9 40 -19 -2 -16 3 -24 17 -26 17 -4 18 -2 6 12 -10 12 -11
20 -4 27 8 8 13 5 18 -10 3 -12 13 -21 21 -21 19 0 18 16 -2 24 -9 4 -14 9
-11 13 4 3 12 1 20 -5 8 -7 26 -8 52 -2 21 5 43 6 47 4 5 -3 14 -1 21 4 7 6
29 13 50 17 34 7 37 5 38 -16 0 -13 3 -19 5 -14 2 6 20 9 39 7 21 -3 35 0 35
7 0 6 -4 11 -10 11 -5 0 -10 5 -10 11 0 8 4 8 13 2 22 -17 79 -5 101 22 18 23
21 24 38 8 17 -15 18 -15 18 5 0 12 5 22 10 22 12 0 12 -7 1 -48 -6 -20 -6
-30 0 -27 5 4 9 13 9 21 0 8 12 27 28 42 15 15 26 26 25 24 -1 -2 3 -10 10
-17 9 -9 16 -9 30 -1 13 8 24 7 46 -5 27 -16 28 -16 40 15 10 28 13 29 24 14
18 -23 67 -29 67 -8 0 6 -11 8 -25 4 -14 -3 -25 -2 -25 4 0 18 43 63 56 58 8
-3 11 0 8 8 -3 7 2 16 10 19 13 5 14 11 4 32 -6 14 -18 25 -26 25 -12 0 -12 4
3 20 10 11 26 20 36 20 10 0 23 9 29 20 13 25 39 25 115 0z m533 -136 c8 -4
31 -171 26 -187 -5 -15 -2 -18 14 -13 18 6 19 3 11 -45 -5 -29 -12 -55 -17
-58 -5 -3 -12 -16 -16 -29 -4 -12 -16 -27 -27 -32 -12 -7 -19 -21 -19 -40 0
-19 -5 -30 -14 -30 -14 0 -26 -29 -26 -62 0 -10 7 -18 15 -18 8 0 15 7 15 15
0 8 5 15 10 15 15 0 12 -16 -4 -30 -8 -6 -13 -17 -10 -24 3 -7 -8 -25 -23 -40
-23 -23 -28 -38 -29 -76 0 -27 -5 -55 -11 -62 -5 -7 -13 -21 -16 -31 -6 -16
-5 -16 18 -1 14 9 25 20 25 25 0 5 7 9 15 9 18 0 18 -5 2 -50 -16 -48 -50 -93
-81 -110 -14 -7 -26 -19 -26 -27 0 -7 -6 -13 -13 -13 -9 0 -13 -16 -14 -51 0
-28 -4 -54 -9 -57 -5 -4 -15 -18 -22 -31 -11 -19 -12 -25 -1 -32 8 -4 10 -12
5 -16 -5 -4 -11 -2 -13 5 -3 6 -12 12 -21 12 -12 0 -13 3 -4 12 17 17 15 38
-3 38 -24 0 -29 -27 -11 -56 11 -16 14 -33 10 -47 -7 -21 -7 -21 -15 -2 -4 11
-8 14 -8 8 -2 -28 -21 -11 -22 20 -2 27 -2 28 -6 7 -5 -28 -21 -50 -33 -47 -4
1 -19 -10 -33 -25 -14 -16 -33 -28 -42 -28 -8 0 -15 -4 -15 -10 0 -5 6 -7 14
-4 8 3 17 1 21 -5 3 -6 -1 -11 -10 -11 -9 0 -30 -14 -47 -30 -29 -29 -43 -32
-43 -8 0 22 -25 19 -47 -7 -12 -14 -28 -23 -35 -21 -8 3 -13 -2 -13 -13 0 -22
-26 -36 -33 -18 -3 8 -11 4 -22 -10 -9 -13 -23 -23 -31 -23 -8 0 -19 -11 -24
-25 -12 -32 -19 -32 -13 -1 4 18 -1 25 -19 29 -40 11 -56 8 -83 -17 -25 -23
-25 -24 -4 -19 22 6 22 6 3 -13 -10 -11 -20 -16 -22 -12 -5 11 -44 10 -62 -3
-11 -8 -12 -12 -2 -16 17 -7 15 -30 -3 -37 -8 -3 -15 -1 -15 4 0 6 -7 10 -15
10 -8 0 -15 9 -15 20 0 11 -7 20 -15 20 -8 0 -15 -7 -15 -15 0 -8 -7 -15 -15
-15 -9 0 -18 -6 -21 -14 -3 -8 -12 -12 -20 -9 -8 3 -29 -10 -50 -31 -20 -20
-40 -36 -46 -36 -5 0 -6 -4 -3 -10 3 -6 -4 -10 -17 -10 -19 0 -20 2 -8 11 12
9 12 10 -3 5 -10 -3 -26 -6 -35 -6 -14 0 -14 -2 -3 -9 16 -10 -66 -8 -89 2
-33 15 -115 25 -124 16 -14 -13 -56 -11 -56 2 0 6 -13 9 -30 7 -17 -1 -34 2
-38 7 -13 19 -62 46 -72 40 -6 -3 -10 -14 -11 -23 0 -11 -3 -12 -6 -4 -2 6
-11 12 -19 12 -8 0 -14 4 -14 9 0 15 29 33 41 25 7 -4 10 -2 7 7 -3 8 -15 13
-26 11 -12 -2 -22 2 -22 7 0 6 -7 11 -15 11 -8 0 -15 -4 -15 -10 0 -5 7 -10
15 -10 8 0 15 -5 15 -11 0 -6 -7 -8 -16 -5 -9 3 -25 6 -35 6 -11 0 -17 5 -14
10 3 6 3 19 0 30 -8 26 -55 28 -55 3 0 -13 -3 -14 -11 -6 -6 6 -17 9 -25 6
-17 -6 -58 32 -49 46 3 6 -6 16 -22 23 -34 15 -46 30 -73 85 -11 23 -29 47
-40 53 -12 7 -20 21 -20 38 0 18 -3 23 -9 14 -10 -17 -45 53 -37 74 4 10 -5
20 -29 30 -22 9 -32 19 -29 28 3 8 0 17 -7 22 -7 4 -15 2 -17 -4 -2 -7 -8 -12
-14 -12 -6 0 -8 7 -4 15 3 8 -2 19 -11 24 -14 7 -15 12 -5 24 10 12 8 20 -14
46 -32 38 -48 40 -40 5 l7 -25 -31 22 c-16 13 -30 31 -30 41 0 9 -9 22 -20 28
-11 6 -20 16 -20 23 0 7 -13 24 -30 39 -25 22 -27 27 -13 32 13 5 14 9 4 19
-9 9 -14 9 -21 -3 -14 -22 -22 -6 -11 22 10 28 -1 54 -19 43 -8 -5 -9 3 -5 29
7 33 5 36 -16 37 -16 0 -19 3 -9 6 36 14 38 40 5 53 -14 5 -25 17 -25 25 0 9
-8 27 -17 41 -14 22 -14 27 -2 35 11 7 10 9 -5 9 -14 0 -17 6 -14 24 4 18 1
23 -9 19 -11 -4 -14 1 -11 18 2 13 9 23 16 21 16 -3 15 3 -3 22 -17 16 -10 46
10 46 7 0 16 6 19 13 5 10 7 10 12 0 3 -7 12 -13 20 -13 9 0 12 5 9 10 -13 22
8 31 22 10 10 -14 18 -18 22 -11 16 25 121 7 121 -20 0 -7 10 -3 23 9 27 26
37 28 37 7 0 -9 10 -15 25 -16 40 -2 42 -3 68 -26 14 -11 28 -34 31 -50 7 -27
57 -63 90 -63 7 0 24 -8 37 -18 33 -26 103 -36 119 -17 9 10 31 13 88 11 42
-2 79 -5 82 -6 3 -1 14 -1 24 0 13 1 17 -3 13 -14 -8 -20 7 -21 23 -1 7 8 25
15 40 15 16 0 30 5 32 11 2 6 26 13 52 16 42 5 48 4 43 -10 -7 -18 17 -30 44
-22 10 4 24 3 31 -1 16 -10 61 -12 73 -4 14 10 85 0 85 -12 0 -5 -4 -6 -10 -3
-13 8 -13 -5 0 -25 8 -13 10 -12 10 3 0 9 6 17 14 17 8 0 16 6 19 13 3 9 10 7
25 -6 12 -11 22 -14 26 -8 4 5 34 9 67 8 41 -1 63 3 68 12 5 8 17 11 29 7 12
-4 26 -1 35 8 8 8 25 17 38 19 13 2 18 2 12 0 -15 -5 -17 -39 -3 -48 15 -9 0
-33 -26 -39 -13 -4 -24 -13 -24 -20 0 -11 -11 -14 -47 -11 -27 3 -42 2 -35 -1
20 -9 14 -27 -8 -21 -12 3 -28 -4 -43 -18 -12 -13 -36 -25 -52 -27 -17 -2 -33
-7 -37 -13 -5 -7 -14 -6 -26 2 -15 9 -22 9 -31 0 -9 -9 -14 -8 -21 3 -7 12
-12 12 -22 2 -16 -16 -45 -16 -51 1 -4 10 -7 10 -18 0 -19 -19 -29 -16 -30 10
l0 22 -9 -22 c-12 -30 -56 -31 -65 -2 -7 20 -7 20 -21 2 -13 -17 -15 -17 -27
-1 -13 16 -16 15 -39 -10 -14 -15 -24 -32 -21 -39 3 -9 -12 -11 -56 -8 -37 3
-61 1 -61 -5 0 -22 2 -25 18 -22 15 2 15 1 2 -7 -8 -6 -25 -8 -36 -5 -13 3
-26 0 -31 -8 -10 -17 -53 -41 -53 -30 0 5 11 14 25 20 14 6 25 15 25 20 0 14
-71 6 -81 -9 -7 -11 -9 -11 -9 4 0 9 -4 17 -10 17 -18 0 -10 -20 20 -48 17
-16 30 -34 30 -40 0 -6 10 -14 23 -18 12 -4 26 -12 30 -18 5 -6 5 -1 2 12 -3
12 -2 22 3 22 6 0 13 -11 16 -26 6 -22 11 -24 39 -20 21 3 47 -2 75 -15 25
-13 55 -19 72 -17 17 3 30 1 30 -4 0 -5 5 -6 10 -3 6 3 13 -1 16 -9 5 -12 21
-15 80 -12 44 2 75 -1 77 -7 2 -6 9 -7 16 -3 7 5 10 14 7 22 -7 19 19 18 38
-1 19 -20 29 -19 46 5 17 24 45 26 54 5 8 -22 31 -18 57 9 18 19 30 23 51 19
17 -3 28 -1 28 5 0 6 6 9 14 6 7 -3 16 2 19 10 4 9 16 16 27 16 11 0 20 5 20
10 0 6 20 10 45 10 33 0 47 5 54 19 6 10 7 21 4 25 -3 3 -2 6 4 6 5 0 23 11
39 25 16 14 32 25 36 25 4 0 5 6 2 13 -2 7 2 30 11 50 20 47 1 49 -21 2 -16
-35 -34 -41 -42 -17 -2 7 3 12 12 12 9 0 16 5 16 10 0 14 -5 13 -38 -7 -16
-10 -27 -24 -24 -32 3 -8 -1 -12 -9 -9 -8 3 -13 11 -12 17 2 6 -2 11 -7 11 -6
0 -10 7 -10 15 0 9 9 15 21 15 17 0 20 4 15 24 -6 25 7 36 45 36 10 0 19 5 19
11 0 6 -7 9 -15 6 -8 -4 -17 -1 -21 5 -5 7 3 9 24 6 20 -3 28 0 25 8 -2 6 9
14 26 17 19 4 31 13 31 22 0 9 5 13 10 10 6 -4 27 7 48 23 20 16 47 32 60 36
12 4 22 11 22 16 0 10 81 50 99 50 5 0 16 9 23 19 8 11 26 23 41 26 15 4 25
11 22 15 -3 4 2 10 10 14 8 3 15 12 15 20 0 7 7 16 15 20 8 3 15 15 15 26 0
16 5 20 18 16 11 -4 34 4 57 19 l38 26 -7 -52 c-7 -53 -7 -53 13 -35 11 10 27
40 36 67 9 27 21 49 26 49 5 0 9 7 9 15 0 21 54 20 75 -1 12 -13 19 -14 28 -5
8 8 7 11 -6 11 -22 0 -22 17 1 24 9 3 -2 3 -25 1 -50 -6 -56 5 -12 24 33 14
50 42 31 49 -7 2 -12 8 -12 14 0 6 7 5 18 -3 9 -7 18 -14 20 -15z m531 -1366
c1 21 21 3 21 -19 0 -10 5 -19 10 -19 6 0 10 -5 10 -11 0 -7 -10 -9 -25 -7
-21 4 -25 1 -25 -18 0 -15 6 -24 16 -24 9 0 14 -5 12 -11 -2 -6 -7 -10 -12 -9
-5 1 -13 -4 -17 -12 -7 -10 -9 -10 -9 0 0 6 -4 12 -10 12 -16 0 -12 -46 5 -60
10 -8 13 -21 9 -33 -4 -14 -3 -17 6 -12 9 5 11 4 6 -3 -4 -7 -12 -12 -18 -12
-5 0 -22 -10 -36 -21 l-27 -21 45 6 c33 5 41 4 29 -3 -9 -6 -20 -23 -24 -38
-6 -26 -8 -26 -19 -10 -7 9 -18 17 -25 17 -15 0 -14 -23 1 -38 9 -9 8 -12 -6
-12 -12 0 -16 -5 -12 -15 3 -8 0 -28 -6 -43 -20 -50 -17 -61 19 -68 18 -3 33
-10 33 -15 0 -5 -16 -24 -36 -43 -23 -22 -35 -40 -31 -50 4 -9 -1 -20 -11 -26
-12 -8 -14 -13 -4 -16 14 -7 16 -34 2 -34 -6 0 -9 -6 -7 -12 1 -9 -8 -12 -28
-11 -29 2 -29 2 -6 -8 14 -5 31 -7 39 -4 12 5 13 3 2 -10 -7 -9 -19 -14 -27
-11 -8 3 -11 1 -8 -4 3 -6 2 -10 -3 -10 -5 0 -32 -22 -61 -50 -29 -27 -55 -50
-58 -50 -12 0 -181 -148 -250 -219 -41 -41 -83 -75 -95 -77 -13 -1 -54 -12
-91 -24 -38 -12 -75 -19 -83 -16 -8 3 -13 2 -9 -3 7 -13 -61 -22 -115 -17 -26
3 -50 12 -57 22 -11 15 -13 16 -13 2 0 -16 -44 -33 -60 -23 -18 11 -10 22 20
29 33 6 40 23 13 33 -10 4 -21 11 -25 17 -5 8 -13 7 -25 -2 -10 -7 -26 -15
-35 -18 -10 -4 -18 -9 -18 -13 0 -4 -15 -14 -33 -24 -28 -15 -39 -16 -78 -6
-24 6 -63 13 -86 16 -50 6 -53 13 -15 35 15 9 38 26 51 37 13 12 31 21 40 20
12 0 11 -2 -4 -9 -22 -9 -55 -45 -55 -60 0 -15 16 -12 30 5 7 8 17 12 22 9 5
-3 18 2 27 12 45 47 195 133 222 127 8 -2 24 6 34 17 14 16 15 21 5 18 -16 -3
-27 41 -13 51 5 3 22 16 38 29 33 26 27 42 -7 18 -12 -9 -34 -16 -48 -16 -24
1 -25 1 -4 13 12 7 19 18 17 25 -6 17 -32 15 -39 -3 -3 -8 -14 -17 -25 -20
-10 -4 -19 -13 -19 -21 0 -8 -11 -19 -25 -26 -13 -6 -22 -15 -19 -19 3 -5 -11
-9 -31 -9 -23 0 -34 4 -30 10 4 6 15 8 26 5 11 -4 19 -2 19 4 0 6 7 11 15 11
17 0 35 38 28 56 -2 7 10 14 29 18 18 4 51 20 72 36 23 17 52 30 68 30 26 0
28 2 18 20 -13 24 -30 26 -30 5 0 -8 -4 -15 -10 -15 -13 0 -12 11 4 33 15 20
47 22 64 5 9 -9 12 -9 12 0 0 7 -4 12 -10 12 -5 0 -10 5 -10 11 0 7 10 9 25 5
18 -5 25 -2 25 8 0 16 21 26 55 26 30 0 49 24 41 53 -5 21 -3 24 19 19 23 -4
24 -3 12 22 -10 22 -18 26 -39 23 -15 -2 -24 1 -21 6 3 5 19 7 35 5 16 -3 31
-1 34 4 3 4 17 5 31 2 19 -5 24 -4 18 5 -11 20 14 59 44 66 14 4 30 12 34 18
6 9 10 9 14 0 2 -7 9 -13 15 -13 6 0 7 7 4 15 -3 8 -9 22 -12 30 -5 11 1 15
20 15 14 0 26 5 26 10 0 6 4 10 9 10 4 0 6 -11 3 -25 -3 -18 0 -25 11 -25 19
0 34 -57 18 -73 -14 -14 -14 -37 -1 -37 6 0 10 7 10 15 0 7 6 18 14 22 7 4 17
18 20 30 6 18 4 22 -8 17 -22 -8 -21 34 0 58 14 15 15 20 3 34 -12 15 -11 16
8 10 12 -4 24 -2 28 4 3 5 1 10 -6 10 -7 0 -9 3 -5 8 4 4 18 7 29 7 12 0 21 6
20 12 -2 7 8 15 22 19 14 3 34 18 45 32 25 31 32 25 21 -16 -8 -28 -7 -32 10
-32 12 0 19 7 19 19 0 14 5 18 20 14 21 -6 26 11 21 66 -1 13 3 28 10 32 10 6
9 12 -5 27 -13 15 -14 22 -5 28 7 4 15 2 17 -4 6 -19 22 -3 22 22 0 34 22 48
64 40 26 -4 36 -11 36 -25 0 -11 5 -19 11 -19 6 0 9 10 7 23 -2 16 -11 23 -30
25 -32 4 -38 22 -8 22 11 0 20 6 20 14 0 20 34 25 42 6 4 -10 7 -11 7 -2z
m-1648 -892 c22 -11 30 -11 50 0 32 18 49 17 49 -1 0 -8 -9 -15 -20 -15 -11 0
-20 -4 -20 -8 0 -13 23 -32 38 -32 12 0 12 3 2 15 -10 12 -10 15 3 15 8 0 18
6 20 13 3 6 3 -3 0 -20 -3 -19 -1 -33 5 -33 5 0 9 8 8 17 0 10 7 19 18 21 11
2 16 0 12 -7 -12 -19 24 -24 43 -7 10 9 26 16 37 16 18 -1 18 -1 -1 -12 -11
-7 -26 -18 -33 -25 -7 -7 -20 -13 -28 -13 -8 0 -14 -4 -14 -9 0 -10 50 -2 66
10 6 5 20 10 32 12 12 2 25 6 28 10 4 4 18 7 31 7 13 0 23 5 23 10 0 6 10 2
22 -10 24 -22 43 -26 53 -10 3 6 14 10 23 10 11 0 6 -8 -16 -21 -18 -12 -41
-19 -52 -16 -21 6 -28 -9 -8 -15 9 -3 8 -9 -5 -22 -24 -24 -22 -27 14 -14 16
6 32 8 35 5 7 -7 -66 -48 -76 -42 -4 3 -13 -1 -19 -9 -7 -8 -23 -17 -36 -20
-14 -4 -25 -11 -25 -16 0 -6 -9 -10 -20 -10 -11 0 -20 -4 -20 -10 0 -5 -14
-10 -31 -10 -20 0 -28 4 -23 12 5 8 2 9 -10 5 -20 -8 -236 9 -316 24 -30 6
-59 16 -65 23 -6 7 -44 12 -103 12 -69 1 -96 5 -103 15 -6 10 -3 15 13 17 12
2 24 -1 26 -7 2 -6 16 -11 30 -11 l27 0 -27 25 c-15 14 -33 25 -40 25 -9 0 -9
3 -1 11 14 14 93 -29 93 -51 1 -12 3 -11 11 3 8 14 14 16 25 6 9 -7 14 -8 14
-1 0 6 -8 13 -18 16 -23 8 -80 66 -64 66 6 0 13 -4 17 -9 3 -6 26 -13 50 -17
25 -3 48 -10 51 -15 10 -16 25 -9 20 9 -3 9 -1 24 4 32 8 12 10 9 10 -12 0
-16 4 -28 9 -28 14 0 26 22 26 45 0 14 6 19 18 17 9 -2 17 2 17 8 0 6 4 9 9 5
5 -3 25 3 43 14 41 24 38 24 69 7z"/>
<path d="M6425 4549 c-4 -13 -26 -48 -48 -77 -31 -41 -44 -71 -57 -130 -9 -42
-15 -82 -13 -89 3 -9 17 -8 55 4 60 17 112 49 152 92 44 46 10 39 -44 -9 -49
-43 -56 -45 -94 -30 -34 13 -33 36 6 96 38 58 68 138 58 155 -5 8 -10 3 -15
-12z"/>
</g>
</svg>
