<?xml version="1.0" standalone="no"?>
<!DOCTYPE svg PUBLIC "-//W3C//DTD SVG 20010904//EN"
 "http://www.w3.org/TR/2001/REC-SVG-20010904/DTD/svg10.dtd">


 
<svg version="1.0" xmlns="http://www.w3.org/2000/svg"
 width="250" height="250" viewBox="250 250"
 preserveAspectRatio="xMidYMid meet">

  <line x1="80" y1="20" x2="80" y2="110" style="stroke:rgb(0,0,0);stroke-width:1" />
  <rect x="20" y="20" width="120" height="90" style="fill:none;stroke:black;stroke-width:1" />
  <circle cx="80" cy="65" r="9.15" stroke="black" stroke-width="1" fill="none" />
  
  <polyline points="20,61.35 14.5,61.35 14.5,68.65 20,68.65" style="fill:none;stroke:black;stroke-width:1" />
  
  <polyline points="20,55.85 25.5,55.85 25.5,74.15 20,74.15" style="fill:none;stroke:black;stroke-width:1" />
  
  <polyline points="20,44.85 36.5,44.85 36.5,85.15 20,85.15" style="fill:none;stroke:black;stroke-width:1" />
  
  
  <polyline points="140,61.35 145.5,61.35 145.5,68.65 140,68.65" style="fill:none;stroke:black;stroke-width:1" />
    
  <polyline points="140,55.85 134.5,55.85 134.5,74.15 140,74.15" style="fill:none;stroke:black;stroke-width:1" />
  
  <polyline points="140,44.85 124.5,44.85 124.5,85.15 140,85.15" style="fill:none;stroke:black;stroke-width:1" />
  
  
  <path d="M 23 20 C 23 23, 23 23, 20 23" stroke="black" fill="transparent"/>
  
  <path d="M 137 20 C 137 23, 137 23, 140 23" stroke="black" fill="transparent"/>
  
  <path d="M 137 110 C 137 107, 137 107 140 107" stroke="black" fill="transparent"/>
   
  <path d="M 23 110 C 23 107, 23 107, 20 107" stroke="black" fill="transparent"/>
  
  
  <path d="M 36.5 55.85 C 43 57.85, 43 72.15, 36.5 74.15" stroke="black" fill="transparent"/>
  
  <path d="M 124.5 55.85 C 118 57.85, 118 72.15, 124.5 74.15" stroke="black" fill="transparent"/>
  
   
</svg> 