<?xml version="1.0" standalone="no"?>
<!DOCTYPE svg PUBLIC "-//W3C//DTD SVG 20010904//EN"
 "http://www.w3.org/TR/2001/REC-SVG-20010904/DTD/svg10.dtd">


 
<svg version="1.0" xmlns="http://www.w3.org/2000/svg"
 width="500" height="500" viewBox="500 500"
 preserveAspectRatio="xMidYMid meet">
 
	<line x1="27" y1="90" x2="126" y2="90" style="stroke:rgb(0,0,0);stroke-width:1" />
	
	

	<path d="M 35 50 C 50 20 100 20 115 50 C 90 30 60 30 35 50" style="fill:none;stroke:black;stroke-width:1"/>
	<path d="M 45 60 C 60 30 90 30 105 60 C 95 40 55 40 45 60" style="fill:none;stroke:black;stroke-width:1"/>
	<path d="M 55 70 C 60 40 90 40 95 70 C 90 50 60 50 55 70" style="fill:none;stroke:black;stroke-width:1"/>
	
	
	<polygon points="30,75 39,75 39,78 36,78 36,84 33,84, 33,78, 30,78" style="fill:none;stroke:black;stroke-width:1" />
	<polygon points="42,75 42,82 44,84 49,84 51,82 51,75 48,75 48,81 45,81 45,75" style="fill:none;stroke:black;stroke-width:1" />
	<polygon points="54,75 54,84 57,84 57,81 60,84 63,84 60,80 63,80 63,75" style="fill:none;stroke:black;stroke-width:1" />
	<polygon points="66,75 66,84 69,84 69,82 72,82 72,80 69,80 69,78 74,78 74,75" style="fill:none;stroke:black;stroke-width:1" />
	
	
	<polygon points="79,75 88,75 88,78 85,78 85,84 82,84, 82,78, 79,78" style="fill:none;stroke:black;stroke-width:1" />
	<polygon points="90,84 93,84 93,81 96,81 96,84 99,84 96,75 96,75 93,75" style="fill:none;stroke:black;stroke-width:1" />
	<polygon points="102,75 105,75 108,79 108,75 111,75 111,84 108,84 105,80 105,84 102,84" style="fill:none;stroke:black;stroke-width:1" />
	<polygon points="114,75 117,75 117,78 120,75 123,75 123,78 120,80 123,84 120,84 117,81 117,84 114,84" style="fill:none;stroke:black;stroke-width:1" />
	
	
	
	
  
	
</svg>
