<?xml version="1.0" standalone="no"?>
<!DOCTYPE svg PUBLIC "-//W3C//DTD SVG 20010904//EN"
 "http://www.w3.org/TR/2001/REC-SVG-20010904/DTD/svg10.dtd">


 
<svg version="1.0" xmlns="http://www.w3.org/2000/svg"
 width="500" height="500" viewBox="500 500"
 preserveAspectRatio="xMidYMid meet">
  <path d="M 10 10 H 90 V 90 H 10 Z" fill="transparent" stroke="black"/>
  
  <path d="M 130 10 C 120 20, 180 20, 170 10" stroke="black" fill="transparent"/>
  
  <path d="M 10 110 C 20 140, 40 140, 50 110" stroke="black" fill="transparent"/>
  
  <path d="M 10 80 C 40 10, 65 10, 95 80 S 150 150, 180 80" stroke="black" fill="transparent"/>
  
  <path d="M 10 80 Q 95 10 180 80" stroke="black" fill="transparent"/>
  
  <path d="M 10 315L 110 215 A 30 50 0 0 1 162.55 162.45 L 172.55 152.45 A 30 50 -45 0 1 215.1 109.9 L 315 10" stroke="black" fill="black" stroke-width="2" fill-opacity="0.5"/>
    
  <path d="M 10 80 Q 52.5 10, 95 80 T 180 80" stroke="black" fill="transparent"/>

</svg>
