<?xml version="1.0" standalone="no"?>
<!DOCTYPE svg PUBLIC "-//W3C//DTD SVG 20010904//EN"
 "http://www.w3.org/TR/2001/REC-SVG-20010904/DTD/svg10.dtd">


 
<svg version="1.0" xmlns="http://www.w3.org/2000/svg"
 width="500" height="500" viewBox="500 500"
 preserveAspectRatio="xMidYMid meet">

	Logo outline
	<circle cx="200" cy="200" r="170" style="fill:transparent;stroke:black;stroke-width:20" />

	Upper bar
	<path d="M 73.40824,121.84769 C 135.58696,-10.074118 290.16893,20.480732 326.09238,120.34956 245.62597,24.858804 118.77984,55.63391 73.40824,121.84769 Z" style="fill:transparent;stroke:black;stroke-width:3;"/>

	Middle bar
	<path d="M 100.87391,153.30836 C 162.31,75.103178 252.00026,87.665637 297.62797,152.80899 258.28047,49.161519 132.2943,64.353979 100.87391,153.30836 Z" style="fill:transparent;stroke:black;stroke-width:3;"/>

	Lower bar
	<path d="m 130.83645,180.27466 c 34.18702,-92.460208 120.70865,-63.33409 136.32959,-0.99875 -28.61543,-48.30156 -94.68413,-63.96147 -136.32959,0.99875 z" style="fill:transparent;stroke:black;stroke-width:3;"/>

	Grass
	<path d="m 37.453184,200.24969 c 7.990012,18.37742 17.977528,33.53744 22.47191,37.95256 3.969474,-11.62468 6.561903,-23.05263 19.475655,-35.95506 -6.320833,28.31184 7.69965,63.65124 15.980025,75.40574 3.143977,-11.99572 1.683292,-26.62268 -4.494382,-43.94506 20.625168,15.89549 23.690858,30.32769 28.963798,44.94382 0.82998,-14.24051 5.80698,-22.38245 -14.98128,-68.41449 21.67561,16.88955 30.61842,35.90124 36.45444,55.43072 5.65177,-13.74361 5.80257,-26.70136 28.96379,-42.94632 -8.90462,18.97628 -4.5828,37.95256 -3.49563,56.92884 8.01507,-48.00952 22.42929,-62.7435 36.95381,-76.90387 -15.51787,26.46426 -14.30788,54.12336 -11.48564,81.89762 5.52298,-13.09052 12.21327,-23.84646 13.98252,-44.44444 4.68643,8.89274 7.45238,18.74572 9.48814,28.9638 7.62232,-21.44209 17.51557,-39.47779 30.46192,-52.93384 -6.12915,16.34276 -13.33852,31.6053 -10.48689,56.92884 17.85052,-42.39355 41.62061,-60.12218 67.41573,-69.41323 -24.60846,23.48557 -34.4301,48.10859 -41.94757,72.90886 11.52384,-16.27781 19.4831,-33.89234 40.94882,-46.44195 -11.44168,16.80133 -13.53835,31.2664 -14.4819,45.4432 16.8385,-16.36261 26.08769,-34.41173 30.9613,-53.43321 8.10543,21.10196 4.64608,33.53034 2.49688,46.94133 17.02756,-44.18472 10.34489,-52.80407 9.98751,-70.91137 5.82624,8.65471 11.28589,19.50896 14.4819,43.94507 5.95911,-8.38972 11.3519,-17.9121 15.98002,-28.96379 C 344.16936,423.81633 33.166344,403.71628 37.453184,200.24969 Z" style="fill:transparent;stroke:black;stroke-width:3;"/>


</svg>
